<?xml version="1.0" encoding="iso-8859-1"?>
<!-- Uploaded to: SVG Repo, www.svgrepo.com, Generator: SVG Repo Mixer Tools -->
<svg fill="#ffffff" height="800px" width="800px" version="1.1" id="Layer_1" xmlns="http://www.w3.org/2000/svg" xmlns:xlink="http://www.w3.org/1999/xlink" 
	 viewBox="0 0 512 512" xml:space="preserve">
<g>
	<g>
		<path d="M277.333,277.333V512h149.333C473.795,512,512,473.795,512,426.667V277.333H277.333z M440.889,448H327.111v-42.667
			h113.778V448z M440.889,362.667H327.111V320h113.778V362.667z"/>
	</g>
</g>
<g>
	<g>
		<path d="M85.333,0C38.205,0,0,38.205,0,85.333v149.333h234.667V0H85.333z M188.341,152.784h-39.007v39.006h-42.667v-39.006H67.661
			v-42.667h39.006V71.111h42.667v39.006h39.007V152.784z"/>
	</g>
</g>
<g>
	<g>
		<path d="M0,277.333v149.333C0,473.795,38.205,512,85.333,512h149.333V277.333H0z M185.751,411.583l-30.17,30.17L128,414.17
			l-27.583,27.583l-30.17-30.17L97.83,384l-27.581-27.583l30.17-30.17L128,353.83l27.583-27.581l30.17,30.17L158.17,384
			L185.751,411.583z"/>
	</g>
</g>
<g>
	<g>
		<path d="M426.667,0H277.333v234.667H512V85.333C512,38.205,473.795,0,426.667,0z M440.889,149.333H327.111v-42.667h113.778
			V149.333z"/>
	</g>
</g>
</svg>